<svg xmlns="http://www.w3.org/2000/svg" viewBox="0 0 300 200" fill="none" aria-hidden="true">
  <g stroke-linecap="round" stroke-linejoin="round">
    <!-- fuselage -->
    <path
      d="M168 36c28 22 48 62 42 104-2 14-10 26-20 34l-36-28c8-8 14-20 16-32 6-32-8-62-28-78z"
      stroke="#161E2D"
      stroke-width="2.5"
    />
    <path
      d="M168 36c-20 10-42 36-52 68-8 26-4 52 10 72l36-28c-10-14-12-34-6-52 8-26 24-46 40-60z"
      stroke="#161E2D"
      stroke-width="2.5"
    />
    <!-- window -->
    <rect
      x="148"
      y="72"
      width="22"
      height="16"
      rx="3"
      transform="rotate(35 159 80)"
      stroke="#161E2D"
      stroke-width="2.5"
    />
    <!-- side fin left/back -->
    <path d="M112 118 L78 150 L116 136 Z" stroke="#161E2D" stroke-width="2.5" />
    <!-- side fin right/front -->
    <path d="M196 98 L232 108 L204 122 Z" stroke="#161E2D" stroke-width="2.5" />
    <!-- bottom fin -->
    <path d="M140 148 L122 180 L152 162 Z" stroke="#161E2D" stroke-width="2.5" />
    <!-- exhaust -->
    <path d="M118 162 L96 186" stroke="#0073BB" stroke-width="2.5" />
    <path d="M130 170 L114 196" stroke="#0073BB" stroke-width="2.5" />
    <path d="M144 174 L136 200" stroke="#0073BB" stroke-width="2.5" />
  </g>
</svg>
